<?xml version="1.0" encoding="utf-8"?>
<svg version="1.1" id="Capa_1" xmlns="http://www.w3.org/2000/svg" xmlns:xlink="http://www.w3.org/1999/xlink" x="0px" y="0px"
	 viewBox="0 0 168.9 29.7" style="enable-background:new 0 0 168.9 29.7;" xml:space="preserve">
<path d="M6.9,11.5c0,0,0-4.2,0-4.2c-0.1-3,2.7-2,2.1,0.7h6.5C17.1-2.2-1-3.3,0,8.4c0,0,0,13.5,0,13.5c-1.1,10.4,17.1,10,15.9,0
	c0,0,0-5.7,0-5.7C16.7,11,10.8,7.1,6.9,11.5z M9,22.7c0.1,2.3-2.3,2.1-2.1,0c0.3-1.1-0.9-7.5,1.1-7.3C9.9,15.2,8.7,21.6,9,22.7z
	 M33.9,7.9C34.4-2.6,17.5-3,17.9,8c1,6.7-4,22.2,7.8,21.7C37.6,30.5,33,14.7,33.9,7.9z M26.9,7.1c0,0,0,15.3,0,15.3
	c0.2,2.5-2.4,2.4-2.1,0V7.1C24.6,4.9,27.2,4.9,26.9,7.1z M42.7,11.5c0,0,0-4.2,0-4.2c-0.1-3,2.7-2,2.1,0.7h6.5
	C52.9-2.2,34.8-3.3,35.8,8.4c0,0,0,13.5,0,13.5c-1.1,10.4,17.1,10,15.9,0c0,0,0-5.7,0-5.7C52.5,11,46.6,7.1,42.7,11.5z M44.8,22.7
	c0.1,2.3-2.3,2.1-2.1,0c0.3-1.1-0.9-7.5,1.1-7.3C45.7,15.2,44.5,21.6,44.8,22.7z M66.4,23.3H74l-0.7,5.9H58.7
	c-1.4-8.5,7.9-15.3,8-22.2c0-1-0.1-1.6-0.9-1.6c-1.4-0.1-0.9,3.1-1,4.2h-6.2c-2.1-11.5,15-13.8,15-1.9
	C74.1,13.1,68.4,17.6,66.4,23.3z M75.8,0.5H90V6c-3.5,6.7-5.1,14.5-5.7,23.2H77c0.3-8,3-16.9,6.3-22.8h-7.5V0.5z M112.7,15.9
	c0,0,0,4.8,0,4.8c1,12.4-17.6,11.6-15.7-0.3h6.6v2.1c-0.3,2.2,2.2,2.4,2,0c-0.3-1,0.8-7.5-0.9-7.3c-0.6,0-1.1,0.4-1,2.6l-6.4-0.4
	c0.5-4.8,0.8-10.9,1.2-16.9h13.7l-0.7,5.9h-6.8c0,1.2-0.2,3.2-0.3,4.5C107.9,7.4,113.3,10.4,112.7,15.9z M113.7,0.5h14.2V6
	c-3.5,6.7-5.1,14.5-5.7,23.2h-7.3c0.3-8,3-16.9,6.3-22.8h-7.5V0.5z M151,7.9c0.5-10.5-16.4-10.9-15.9,0c1,6.7-4,22.2,7.8,21.7
	C154.7,30.5,150.1,14.7,151,7.9z M144.1,7.1c0,0,0,15.3,0,15.3c0.2,2.5-2.4,2.4-2.1,0V7.1C141.7,4.9,144.3,4.9,144.1,7.1z
	 M168.9,16.2c0.7-5.2-5.1-9-9.1-4.7c0,0,0-4.2,0-4.2c-0.1-3,2.7-2,2.1,0.7h6.5C170.1-2.2,152-3.3,153,8.4c0,0,0,13.5,0,13.5
	c-1.1,10.4,17.1,10,15.9,0C168.9,21.9,168.9,16.2,168.9,16.2z M161.9,22.7c0.1,2.3-2.3,2.1-2.1,0c0.3-1.1-0.9-7.5,1.1-7.3
	C162.9,15.2,161.6,21.6,161.9,22.7z" fill="red"/>
</svg>
